name C:\Users\u0150099\Documents\master_thesis\3dpredictsim\Results\debug\Fal_s1_mtjc2_sc_cspx10_oy2_o1x25_TrackAnkleQSubtQ_ATx70_MTc2_MTPm_k1_d01_MTJm_nl_MG_exp5_table_d01_PF_Natali2010_x3_ls146_ig21.mot
datacolumns 128
datarows 4
range 1.10360964 1.13671793
endheader
time	pelvis_tilt	pelvis_list	pelvis_rotation	pelvis_tx	pelvis_ty	pelvis_tz	hip_flexion_l	hip_adduction_l	hip_rotation_l	hip_flexion_r	hip_adduction_r	hip_rotation_r	knee_angle_l	knee_angle_r	ankle_angle_l	ankle_angle_r	subtalar_angle_l	subtalar_angle_r	mtj_angle_l	mtj_angle_r	mtp_angle_l	mtp_angle_r	lumbar_extension	lumbar_bending	lumbar_rotation	arm_flex_l	arm_add_l	arm_rot_l	arm_flex_r	arm_add_r	arm_rot_r	elbow_flex_l	elbow_flex_r	pro_sup_l	pro_sup_r	glut_med1_l/activation	glut_med2_l/activation	glut_med3_l/activation	glut_min1_l/activation	glut_min2_l/activation	glut_min3_l/activation	semimem_l/activation	semiten_l/activation	bifemlh_l/activation	bifemsh_l/activation	sar_l/activation	add_long_l/activation	add_brev_l/activation	add_mag1_l/activation	add_mag2_l/activation	add_mag3_l/activation	tfl_l/activation	pect_l/activation	grac_l/activation	glut_max1_l/activation	glut_max2_l/activation	glut_max3_l/activation	iliacus_l/activation	psoas_l/activation	quad_fem_l/activation	gem_l/activation	peri_l/activation	rect_fem_l/activation	vas_med_l/activation	vas_int_l/activation	vas_lat_l/activation	med_gas_l/activation	lat_gas_l/activation	soleus_l/activation	tib_post_l/activation	flex_dig_l/activation	flex_hal_l/activation	tib_ant_l/activation	per_brev_l/activation	per_long_l/activation	per_tert_l/activation	ext_dig_l/activation	ext_hal_l/activation	ercspn_l/activation	intobl_l/activation	extobl_l/activation	glut_med1_r/activation	glut_med2_r/activation	glut_med3_r/activation	glut_min1_r/activation	glut_min2_r/activation	glut_min3_r/activation	semimem_r/activation	semiten_r/activation	bifemlh_r/activation	bifemsh_r/activation	sar_r/activation	add_long_r/activation	add_brev_r/activation	add_mag1_r/activation	add_mag2_r/activation	add_mag3_r/activation	tfl_r/activation	pect_r/activation	grac_r/activation	glut_max1_r/activation	glut_max2_r/activation	glut_max3_r/activation	iliacus_r/activation	psoas_r/activation	quad_fem_r/activation	gem_r/activation	peri_r/activation	rect_fem_r/activation	vas_med_r/activation	vas_int_r/activation	vas_lat_r/activation	med_gas_r/activation	lat_gas_r/activation	soleus_r/activation	tib_post_r/activation	flex_dig_r/activation	flex_hal_r/activation	tib_ant_r/activation	per_brev_r/activation	per_long_r/activation	per_tert_r/activation	ext_dig_r/activation	ext_hal_r/activation	ercspn_r/activation	intobl_r/activation	extobl_r/activation	
          1.10360964	         -2.92607330	         -1.00022680	          4.79186496	          1.46780082	          0.90405086	         -0.00496100	        -19.21604381	          0.89897734	          8.96642850	         27.24018712	          1.94356026	         -1.70878937	         -9.07344311	         -7.76286278	          4.40725829	          0.94622505	          5.22201449	         -0.58879116	         -2.43745440	          2.50532479	         19.92106841	         -6.71042339	         -2.62193730	         -0.25828533	         -1.81205963	          3.26296204	        -14.24833352	         19.27453087	         -7.07429032	        -13.45642979	          6.08644148	         37.09655808	         24.57970044	         86.51662706	         86.51662706	          0.33526477	          0.08297799	          0.05919673	          0.44798492	          0.24212084	          0.10342796	          0.05000298	          0.05000037	          0.05000030	          0.08126661	          0.11563006	          0.05000008	          0.05000014	          0.05000028	          0.05000101	          0.05000134	          0.69039857	          0.05000034	          0.05000050	          0.05797686	          0.05004770	          0.05000295	          0.42229167	          0.77865545	          0.05000029	          0.05000154	          0.05000014	          0.36799546	          0.07559105	          0.07936437	          0.06587177	          0.41644193	          0.47886201	          0.29934077	          0.47399827	          0.38384165	          0.55331192	          0.05000000	          0.07008497	          0.31217936	          0.05000005	          0.05000001	          0.11909669	          0.05000000	          0.05000022	          0.05000007	          0.05919722	          0.05000319	          0.05000420	          0.05000065	          0.05000081	          0.05000383	          0.22611061	          0.07008588	          0.29114853	          0.09680141	          0.05000082	          0.13994406	          0.13842248	          0.13148686	          0.10943317	          0.11564447	          0.05000087	          0.05001806	          0.16308953	          0.05919648	          0.08465213	          0.07684689	          0.05000116	          0.05479867	          0.09823276	          0.05000043	          0.05000024	          0.05000003	          0.05000012	          0.05000011	          0.05000011	          0.09823832	          0.09823747	          0.05000013	          0.05179245	          0.06276507	          0.05345044	          0.23164101	          0.11479787	          0.08089621	          0.15731073	          0.57264806	          0.19615640	          0.05000004	          0.12660805	          0.13070166	
          1.11464574	         -2.93016250	         -1.17086355	          5.05110907	          1.48560539	          0.90348590	         -0.00471312	        -19.19465358	          0.51971935	          8.86914758	         26.88296769	          2.39618318	         -1.57941868	        -10.73237394	         -8.13129732	          3.20364308	          0.58052388	          5.49794030	         -0.92555400	         -3.81970438	          2.58708413	         23.49643561	         -6.89667596	         -2.44182914	          0.03638962	         -1.90937105	          2.79059314	        -14.19178892	         19.12452370	         -7.84912490	        -13.44970768	          6.02496907	         38.41927865	         23.99999557	         86.51662706	         86.51662706	          0.28317854	          0.07008662	          0.05000002	          0.37838683	          0.20450524	          0.08735952	          0.05000088	          0.05000009	          0.05000006	          0.06864113	          0.09766607	          0.09011089	          0.05000027	          0.05000019	          0.05000049	          0.05000025	          0.68761886	          0.07468513	          0.05000019	          0.05000039	          0.05000023	          0.05000021	          0.35668492	          0.70668120	          0.05000002	          0.05000012	          0.05000010	          0.32328805	          0.08205070	          0.08850067	          0.07651840	          0.35174393	          0.40446652	          0.25283549	          0.41552265	          0.32420933	          0.46735119	          0.05000000	          0.05919678	          0.28376843	          0.05000005	          0.05000001	          0.10059396	          0.05000001	          0.05000002	          0.08228009	          0.05000050	          0.05000030	          0.05000009	          0.05919669	          0.05919611	          0.05000048	          0.19098234	          0.05919743	          0.24591623	          0.08176247	          0.05000091	          0.14663713	          0.22807097	          0.17013109	          0.09243229	          0.13398028	          0.05000013	          0.08299470	          0.13775226	          0.05000020	          0.13408640	          0.18433394	          0.07070156	          0.05944472	          0.09456072	          0.17485080	          0.08112034	          0.05000021	          0.05000046	          0.05000044	          0.05000042	          0.08297614	          0.08297562	          0.05000009	          0.07998405	          0.08297602	          0.08297614	          0.22677336	          0.09696303	          0.06832828	          0.13287150	          0.59543815	          0.21471062	          0.05000005	          0.10693837	          0.11039599	
          1.12568183	         -2.92970886	         -1.36215151	          5.28273931	          1.50371672	          0.90295192	         -0.00443010	        -19.05906089	          0.12507349	          8.73810200	         26.54546620	          2.83660406	         -1.41624248	        -12.52316508	         -9.16682646	          1.69458964	         -0.07258087	          5.76110072	         -1.25191311	         -5.28545675	          2.56493264	         27.36367136	         -6.93023114	         -2.24821430	          0.35957773	         -1.99930919	          2.23738235	        -14.14015761	         18.94268032	         -8.62331128	        -13.46347505	          6.16130199	         39.75299773	         23.39009979	         86.51662706	         86.51662706	          0.23918424	          0.05919806	          0.05919674	          0.31960109	          0.17273355	          0.07378746	          0.05000296	          0.05000051	          0.05000250	          0.05797714	          0.08249285	          0.16424894	          0.17957139	          0.05919700	          0.05919651	          0.05919754	          0.58079171	          0.06308268	          0.05919664	          0.05919649	          0.05919662	          0.05919667	          0.30127074	          0.59689221	          0.05919676	          0.05919678	          0.05219092	          0.27306237	          0.11491711	          0.11709642	          0.09608872	          0.29709735	          0.34162902	          0.21355523	          0.35096750	          0.27384055	          0.39474408	          0.05000001	          0.05000006	          0.26671374	          0.05000002	          0.05000001	          0.08496579	          0.05620367	          0.05919679	          0.06949720	          0.05000002	          0.05000008	          0.11504953	          0.05000004	          0.05000005	          0.05000014	          0.16131153	          0.05000060	          0.20771095	          0.06905995	          0.07008504	          0.12385583	          0.19263822	          0.31509437	          0.27466570	          0.20156051	          0.05000182	          0.07010127	          0.11635131	          0.09344354	          0.16936992	          0.18047701	          0.07008505	          0.07008503	          0.32372566	          0.14768621	          0.06851761	          0.05919735	          0.05919731	          0.05919744	          0.05919706	          0.07008509	          0.07008507	          0.06314786	          0.06755782	          0.07008497	          0.07008508	          0.29669882	          0.15112039	          0.11186397	          0.29821732	          0.57380239	          0.18135341	          0.05000000	          0.09032453	          0.09324498	
          1.13671793	         -2.92577680	         -1.58891966	          5.48559830	          1.52197786	          0.90250075	         -0.00415797	        -18.76877862	         -0.27996666	          8.57804534	         26.19091518	          3.21572843	         -1.20524053	        -14.48671350	        -10.53795579	         -0.15667922	         -0.73455678	          5.94548985	         -1.62709941	         -6.78541336	          2.65155415	         31.35877214	         -6.86753814	         -2.05023505	          0.72866576	         -2.07772527	          1.63169056	        -14.08141234	         18.74328295	         -9.36313086	        -13.50382802	          6.49020982	         41.07850750	         22.72163264	         86.51662706	         86.51662706	          0.20202491	          0.05000112	          0.05000001	          0.26994854	          0.14589788	          0.06232394	          0.05000150	          0.05000014	          0.05000006	          0.05000024	          0.06967694	          0.22358528	          0.16461741	          0.05000038	          0.05000068	          0.05000097	          0.65037280	          0.05919846	          0.05000026	          0.05000036	          0.05000021	          0.05000019	          0.25446568	          0.59759661	          0.05000004	          0.05000012	          0.05000001	          0.23063968	          0.09706375	          0.09890448	          0.08116051	          0.25094061	          0.28855388	          0.18037750	          0.29644156	          0.23129698	          0.33341709	          0.16333337	          0.12480261	          0.25021457	          0.45268285	          0.05000005	          0.07176561	          0.11165551	          0.05000004	          0.05870020	          0.37370550	          0.40468232	          0.48123134	          0.44930500	          0.33188582	          0.29170771	          0.13625038	          0.13843324	          0.17544124	          0.07008542	          0.05919679	          0.10461376	          0.19284033	          0.26614177	          0.23199414	          0.24040225	          0.05000023	          0.05921100	          0.17751909	          0.32158815	          0.30908422	          0.28823433	          0.05919675	          0.05919673	          0.27343203	          0.12474191	          0.11202819	          0.05000052	          0.05000050	          0.05000061	          0.05000029	          0.05919675	          0.05919673	          0.05333728	          0.05919710	          0.05919666	          0.05919675	          0.32057429	          0.12764251	          0.09448493	          0.35788846	          0.75445762	          0.52835867	          0.07019710	          0.08127831	          0.07875854	
